<svg width="900" height="600" xmlns="http://www.w3.org/2000/svg">
  <defs>
    <marker id="arrowhead" markerWidth="10" markerHeight="7" refX="0" refY="3.5" orient="auto">
      <polygon points="0 0, 10 3.5, 0 7" fill="#333" />
    </marker>
  </defs>
  
  <!-- 主要节点 -->
  <rect x="400" y="20" width="120" height="50" rx="5" fill="#4CAF50" />
  <text x="460" y="50" font-family="Arial" font-size="14" text-anchor="middle" fill="white">main.ts</text>
  <text x="460" y="65" font-family="Arial" font-size="10" text-anchor="middle" fill="white">(应用入口)</text>
  
  <rect x="400" y="100" width="120" height="50" rx="5" fill="#2196F3" />
  <text x="460" y="130" font-family="Arial" font-size="14" text-anchor="middle" fill="white">App.vue</text>
  <text x="460" y="145" font-family="Arial" font-size="10" text-anchor="middle" fill="white">(根组件)</text>
  
  <rect x="580" y="100" width="120" height="50" rx="5" fill="#9C27B0" />
  <text x="640" y="130" font-family="Arial" font-size="14" text-anchor="middle" fill="white">router/index.ts</text>
  <text x="640" y="145" font-family="Arial" font-size="10" text-anchor="middle" fill="white">(路由配置)</text>
  
  <!-- 主要目录 -->
  <rect x="120" y="180" width="120" height="50" rx="5" fill="#FF5722" />
  <text x="180" y="210" font-family="Arial" font-size="14" text-anchor="middle" fill="white">stores/</text>
  <text x="180" y="225" font-family="Arial" font-size="10" text-anchor="middle" fill="white">(状态管理)</text>
  
  <rect x="280" y="180" width="120" height="50" rx="5" fill="#FF9800" />
  <text x="340" y="210" font-family="Arial" font-size="14" text-anchor="middle" fill="white">components/</text>
  <text x="340" y="225" font-family="Arial" font-size="10" text-anchor="middle" fill="white">(组件)</text>
  
  <rect x="440" y="180" width="120" height="50" rx="5" fill="#8BC34A" />
  <text x="500" y="210" font-family="Arial" font-size="14" text-anchor="middle" fill="white">pages/</text>
  <text x="500" y="225" font-family="Arial" font-size="10" text-anchor="middle" fill="white">(页面)</text>
  
  <rect x="600" y="180" width="120" height="50" rx="5" fill="#00BCD4" />
  <text x="660" y="210" font-family="Arial" font-size="14" text-anchor="middle" fill="white">services/</text>
  <text x="660" y="225" font-family="Arial" font-size="10" text-anchor="middle" fill="white">(服务)</text>
  
  <rect x="760" y="180" width="120" height="50" rx="5" fill="#3F51B5" />
  <text x="820" y="210" font-family="Arial" font-size="14" text-anchor="middle" fill="white">types/</text>
  <text x="820" y="225" font-family="Arial" font-size="10" text-anchor="middle" fill="white">(类型定义)</text>
  
  <!-- 组件子目录 -->
  <rect x="200" y="270" width="120" height="50" rx="5" fill="#FFEB3B" />
  <text x="260" y="300" font-family="Arial" font-size="12" text-anchor="middle" fill="#333">components/common/</text>
  <text x="260" y="315" font-family="Arial" font-size="10" text-anchor="middle" fill="#333">(通用组件)</text>
  
  <rect x="340" y="270" width="120" height="50" rx="5" fill="#FFEB3B" />
  <text x="400" y="300" font-family="Arial" font-size="12" text-anchor="middle" fill="#333">components/business/</text>
  <text x="400" y="315" font-family="Arial" font-size="10" text-anchor="middle" fill="#333">(业务组件)</text>
  
  <rect x="480" y="270" width="120" height="50" rx="5" fill="#FFEB3B" />
  <text x="540" y="300" font-family="Arial" font-size="12" text-anchor="middle" fill="#333">components/layout/</text>
  <text x="540" y="315" font-family="Arial" font-size="10" text-anchor="middle" fill="#333">(布局组件)</text>
  
  <!-- 页面子目录 -->
  <rect x="340" y="360" width="120" height="50" rx="5" fill="#CDDC39" />
  <text x="400" y="390" font-family="Arial" font-size="12" text-anchor="middle" fill="#333">pages/dashboard/</text>
  <text x="400" y="405" font-family="Arial" font-size="10" text-anchor="middle" fill="#333">(仪表盘)</text>
  
  <rect x="480" y="360" width="120" height="50" rx="5" fill="#CDDC39" />
  <text x="540" y="390" font-family="Arial" font-size="12" text-anchor="middle" fill="#333">pages/students/</text>
  <text x="540" y="405" font-family="Arial" font-size="10" text-anchor="middle" fill="#333">(学生管理)</text>
  
  <rect x="620" y="360" width="120" height="50" rx="5" fill="#CDDC39" />
  <text x="680" y="390" font-family="Arial" font-size="12" text-anchor="middle" fill="#333">pages/quant-items/</text>
  <text x="680" y="405" font-family="Arial" font-size="10" text-anchor="middle" fill="#333">(量化项目)</text>
  
  <!-- 状态管理子节点 -->
  <rect x="10" y="360" width="100" height="40" rx="5" fill="#E91E63" />
  <text x="60" y="385" font-family="Arial" font-size="11" text-anchor="middle" fill="white">stores/user.ts</text>
  
  <rect x="120" y="360" width="100" height="40" rx="5" fill="#E91E63" />
  <text x="170" y="385" font-family="Arial" font-size="11" text-anchor="middle" fill="white">stores/quant-item.ts</text>
  
  <rect x="230" y="360" width="100" height="40" rx="5" fill="#E91E63" />
  <text x="280" y="385" font-family="Arial" font-size="11" text-anchor="middle" fill="white">stores/record.ts</text>
  
  <!-- 服务子节点 -->
  <rect x="580" y="450" width="100" height="40" rx="5" fill="#00BCD4" />
  <text x="630" y="475" font-family="Arial" font-size="11" text-anchor="middle" fill="white">services/api/</text>
  
  <rect x="690" y="450" width="120" height="40" rx="5" fill="#00BCD4" />
  <text x="750" y="475" font-family="Arial" font-size="11" text-anchor="middle" fill="white">services/websocket/</text>
  
  <!-- 连接线 -->
  <!-- 主节点连接 -->
  <line x1="460" y1="70" x2="460" y2="100" stroke="#333" stroke-width="2" marker-end="url(#arrowhead)" />
  <line x1="460" y1="70" x2="640" y2="100" stroke="#333" stroke-width="2" marker-end="url(#arrowhead)" />
  <line x1="460" y1="70" x2="180" y2="180" stroke="#333" stroke-width="2" marker-end="url(#arrowhead)" />
  
  <!-- App.vue 连接 -->
  <line x1="460" y1="150" x2="640" y2="180" stroke="#333" stroke-width="2" marker-end="url(#arrowhead)" />
  <line x1="460" y1="150" x2="340" y2="180" stroke="#333" stroke-width="2" marker-end="url(#arrowhead)" />
  
  <!-- 路由连接 -->
  <line x1="640" y1="150" x2="500" y2="180" stroke="#333" stroke-width="2" marker-end="url(#arrowhead)" />
  <line x1="640" y1="150" x2="540" y2="270" stroke="#333" stroke-width="2" marker-end="url(#arrowhead)" />
  
  <!-- 组件连接 -->
  <line x1="340" y1="230" x2="260" y2="270" stroke="#333" stroke-width="2" marker-end="url(#arrowhead)" />
  <line x1="340" y1="230" x2="400" y2="270" stroke="#333" stroke-width="2" marker-end="url(#arrowhead)" />
  <line x1="340" y1="230" x2="540" y2="270" stroke="#333" stroke-width="2" marker-end="url(#arrowhead)" />
  
  <!-- 状态管理连接 -->
  <line x1="180" y1="230" x2="60" y2="360" stroke="#333" stroke-width="2" marker-end="url(#arrowhead)" />
  <line x1="180" y1="230" x2="170" y2="360" stroke="#333" stroke-width="2" marker-end="url(#arrowhead)" />
  <line x1="180" y1="230" x2="280" y2="360" stroke="#333" stroke-width="2" marker-end="url(#arrowhead)" />
  <line x1="180" y1="230" x2="660" y2="270" stroke="#333" stroke-width="2" marker-end="url(#arrowhead)" stroke-dasharray="4" />
  
  <!-- 页面连接 -->
  <line x1="500" y1="230" x2="400" y2="360" stroke="#333" stroke-width="2" marker-end="url(#arrowhead)" />
  <line x1="500" y1="230" x2="540" y2="360" stroke="#333" stroke-width="2" marker-end="url(#arrowhead)" />
  <line x1="500" y1="230" x2="680" y2="360" stroke="#333" stroke-width="2" marker-end="url(#arrowhead)" />
  
  <!-- 服务连接 -->
  <line x1="660" y1="230" x2="630" y2="450" stroke="#333" stroke-width="2" marker-end="url(#arrowhead)" />
  <line x1="660" y1="230" x2="750" y2="450" stroke="#333" stroke-width="2" marker-end="url(#arrowhead)" />
  
  <!-- 页面到组件的连接 -->
  <line x1="400" y1="360" x2="260" y2="320" stroke="#333" stroke-width="2" marker-end="url(#arrowhead)" stroke-dasharray="4" />
  <line x1="540" y1="360" x2="260" y2="320" stroke="#333" stroke-width="2" marker-end="url(#arrowhead)" stroke-dasharray="4" />
  <line x1="680" y1="360" x2="260" y2="320" stroke="#333" stroke-width="2" marker-end="url(#arrowhead)" stroke-dasharray="4" />
  
  <!-- 页面到状态管理的连接 -->
  <line x1="340" y1="385" x2="280" y2="400" stroke="#333" stroke-width="2" marker-end="url(#arrowhead)" stroke-dasharray="4" />
  <line x1="480" y1="385" x2="280" y2="400" stroke="#333" stroke-width="2" marker-end="url(#arrowhead)" stroke-dasharray="4" />
  <line x1="620" y1="385" x2="170" y2="400" stroke="#333" stroke-width="2" marker-end="url(#arrowhead)" stroke-dasharray="4" />
  
  <!-- 类型到服务和组件的连接 -->
  <line x1="820" y1="230" x2="750" y2="450" stroke="#333" stroke-width="2" marker-end="url(#arrowhead)" stroke-dasharray="4" />
  <line x1="820" y1="230" x2="400" y2="270" stroke="#333" stroke-width="2" marker-end="url(#arrowhead)" stroke-dasharray="4" />
  
  <!-- 图例 -->
  <rect x="10" y="520" width="15" height="15" fill="#4CAF50" />
  <text x="30" y="533" font-family="Arial" font-size="12">入口文件</text>
  
  <rect x="110" y="520" width="15" height="15" fill="#2196F3" />
  <text x="130" y="533" font-family="Arial" font-size="12">根组件</text>
  
  <rect x="210" y="520" width="15" height="15" fill="#FF5722" />
  <text x="230" y="533" font-family="Arial" font-size="12">状态管理</text>
  
  <rect x="310" y="520" width="15" height="15" fill="#FF9800" />
  <text x="330" y="533" font-family="Arial" font-size="12">组件</text>
  
  <rect x="410" y="520" width="15" height="15" fill="#8BC34A" />
  <text x="430" y="533" font-family="Arial" font-size="12">页面</text>
  
  <rect x="510" y="520" width="15" height="15" fill="#00BCD4" />
  <text x="530" y="533" font-family="Arial" font-size="12">服务</text>
  
  <rect x="610" y="520" width="15" height="15" fill="#3F51B5" />
  <text x="630" y="533" font-family="Arial" font-size="12">类型定义</text>
  
  <line x1="710" y1="527" x2="740" y2="527" stroke="#333" stroke-width="2" />
  <text x="750" y="533" font-family="Arial" font-size="12">直接依赖</text>
  
  <line x1="810" y1="527" x2="840" y2="527" stroke="#333" stroke-width="2" stroke-dasharray="4" />
  <text x="850" y="533" font-family="Arial" font-size="12">间接依赖</text>
</svg>